<svg aria-hidden="true" style="position: absolute; width: 0; height: 0; overflow: hidden;" version="1.1" xmlns="http://www.w3.org/2000/svg" xmlns:xlink="http://www.w3.org/1999/xlink">
<defs>
<symbol id="icon-envelope" viewBox="0 0 32 32">
<path d="M29 4h-26c-1.657 0-3 1.343-3 3v0 18c0 1.688 1.312 3 3 3h26c1.657 0 3-1.343 3-3v0-18c0-1.626-1.376-3-3-3zM29 7v2.562c-1.438 1.188-3.688 2.938-8.438 6.688-1.062 0.812-3.122 2.812-4.562 2.75-1.5 0.062-3.562-1.938-4.626-2.75-4.75-3.75-7-5.5-8.374-6.688v-2.562h26zM3 25v-11.562c1.376 1.124 3.438 2.75 6.5 5.186 1.376 1.066 3.812 3.442 6.5 3.376 2.626 0.062 5-2.312 6.438-3.376 0.12-0.15 2.255-1.848 4.397-3.537l2.165-1.647v11.56h-26z"></path>
</symbol>
<symbol id="icon-facebook" viewBox="0 0 32 32">
<path fill="#707070" style="fill: var(--color1, #707070)" d="M31.5 16c0 0.004 0 0.008 0 0.012 0 7.718-5.649 14.118-13.038 15.288l-0.088 0.011v-10.812h3.626l0.688-4.5h-4.312v-2.876c0-1.25 0.624-2.436 2.56-2.436h1.94v-3.814s-1.752-0.312-3.5-0.312c-3.5 0-5.814 2.188-5.814 6.062v3.376h-3.936v4.5h3.934v10.812c-7.434-1.124-13.060-7.562-13.060-15.312 0-0.001 0-0.001 0-0.002 0-8.559 6.939-15.498 15.498-15.498 0.001 0 0.001 0 0.002 0h-0c0.001 0 0.001 0 0.002 0 8.559 0 15.498 6.939 15.498 15.498 0 0.001 0 0.001 0 0.002v-0z"></path>
</symbol>
<symbol id="icon-icon-close" viewBox="0 0 32 32">
<path d="M17.767 16l13.867-13.866c0.226-0.226 0.366-0.539 0.366-0.884 0-0.691-0.56-1.251-1.251-1.251-0.346 0-0.659 0.14-0.885 0.367l-13.865 13.867-13.866-13.867c-0.226-0.226-0.539-0.366-0.884-0.366-0.691 0-1.251 0.56-1.251 1.251 0 0.345 0.14 0.658 0.366 0.884l13.867 13.866-13.867 13.866c-0.226 0.226-0.366 0.539-0.366 0.884 0 0.691 0.56 1.251 1.251 1.251 0.345 0 0.658-0.14 0.884-0.366v0l13.866-13.867 13.866 13.867c0.226 0.227 0.539 0.368 0.884 0.368s0.658-0.141 0.884-0.368l0-0c0.226-0.226 0.366-0.539 0.366-0.884s-0.14-0.658-0.366-0.884l-13.867-13.866z"></path>
</symbol>
<symbol id="icon-instagram" viewBox="0 0 32 32">
<path fill="#707070" style="fill: var(--color1, #707070)" d="M16 7.266c4.201 0 7.667 3.467 7.667 7.667 0 4.267-3.467 7.667-7.667 7.667-4.267 0-7.667-3.401-7.667-7.667 0-4.234 3.433-7.667 7.667-7.667v0zM16 19.934c2.733 0 4.934-2.199 4.934-5.001 0-0.004 0-0.008 0-0.013 0-2.718-2.203-4.922-4.922-4.922-0.005 0-0.009 0-0.014 0h0.001c-2.801 0.002-5.001 2.204-5.001 4.934 0 0.003 0 0.006 0 0.009 0 2.757 2.235 4.992 4.992 4.992 0.003 0 0.006 0 0.009 0h-0zM25.734 6.999c0 0.003 0 0.006 0 0.009 0 0.99-0.802 1.792-1.792 1.792-0.003 0-0.006 0-0.009-0h0c-0.003 0-0.006 0-0.009 0-0.99 0-1.792-0.802-1.792-1.792 0-0.003 0-0.006 0-0.009v0c0-0.003-0-0.006-0-0.009 0-0.99 0.802-1.792 1.792-1.792 0.003 0 0.006 0 0.009 0h-0c0.003 0 0.006-0 0.009-0 0.99 0 1.792 0.802 1.792 1.792 0 0.003 0 0.006-0 0.009v-0zM30.799 8.8c0.134 2.466 0.134 9.867 0 12.333-0.132 2.4-0.666 4.467-2.398 6.268-1.734 1.732-3.868 2.266-6.268 2.4-2.466 0.132-9.867 0.132-12.333 0-2.4-0.134-4.467-0.668-6.268-2.4-1.732-1.801-2.266-3.87-2.4-6.268-0.13-2.466-0.13-9.867 0-12.333 0.134-2.4 0.668-4.533 2.4-6.268 1.801-1.732 3.87-2.266 6.268-2.398 2.466-0.134 9.867-0.134 12.333 0 2.4 0.134 4.533 0.668 6.268 2.4 1.73 1.732 2.263 3.866 2.398 6.268zM27.599 23.733c0.802-1.933 0.602-6.601 0.602-8.8 0-2.133 0.201-6.801-0.599-8.8-0.533-1.267-1.536-2.334-2.801-2.801-2.001-0.798-6.667-0.597-8.8-0.597-2.199 0-6.867-0.203-8.8 0.597-1.301 0.519-2.319 1.516-2.854 2.768l-0.013 0.034c-0.8 2.001-0.599 6.667-0.599 8.8 0 2.199-0.201 6.867 0.599 8.8 0.525 1.318 1.549 2.342 2.833 2.855l0.034 0.012c1.933 0.8 6.601 0.599 8.8 0.599 2.133 0 6.801 0.201 8.8-0.599 1.267-0.533 2.334-1.534 2.801-2.867z"></path>
</symbol>
<symbol id="icon-pinterest" viewBox="0 0 32 32">
<path fill="#707070" style="fill: var(--color1, #707070)" d="M31 16c0 0.001 0 0.001 0 0.002 0 8.559-6.939 15.498-15.498 15.498-0.001 0-0.001 0-0.002 0h0c-1.626 0-3.188-0.188-4.626-0.688 0.626-1 1.564-2.688 1.94-4.062 0.186-0.688 0.936-3.688 0.936-3.688 0.5 1 2 1.812 3.562 1.812 4.688 0 8.062-4.312 8.062-9.624 0-5.126-4.186-9-9.56-9-6.69 0-10.252 4.5-10.252 9.376 0 2.312 1.188 5.124 3.126 6.060 0.312 0.126 0.5 0.064 0.562-0.248 0-0.188 0.312-1.25 0.438-1.75 0-0.126 0-0.312-0.126-0.438-0.624-0.75-1.124-2.188-1.124-3.562 0-3.376 2.562-6.688 7-6.688 3.75 0 6.436 2.562 6.436 6.312 0 4.188-2.124 7.064-4.874 7.064-1.5 0-2.626-1.252-2.312-2.752 0.436-1.872 1.312-3.874 1.312-5.184 0-1.188-0.626-2.188-1.938-2.188-1.562 0-2.812 1.626-2.812 3.75 0 1.376 0.438 2.312 0.438 2.312s-1.5 6.5-1.814 7.688c-0.312 1.376-0.186 3.25-0.060 4.438-5.794-2.308-9.814-7.87-9.814-14.37 0-0.024 0-0.049 0-0.073v0.004c0-0.001 0-0.001 0-0.002 0-8.559 6.939-15.498 15.498-15.498 0.001 0 0.001 0 0.002 0h-0c0.001 0 0.001 0 0.002 0 8.559 0 15.498 6.939 15.498 15.498 0 0.001 0 0.001 0 0.002v-0z"></path>
</symbol>
<symbol id="icon-whatsapp" viewBox="0 0 32 32">
<path fill="#707070" style="fill: var(--color1, #707070)" d="M27.143 4.715c3.001 2.999 4.857 6.923 4.857 11.211 0 8.713-7.287 15.856-16.071 15.856-2.645 0-5.216-0.713-7.573-1.929l-8.357 2.146 2.215-8.215c-1.342-2.273-2.138-5.007-2.146-7.927v-0.002c0.002-8.711 7.145-15.856 15.863-15.856 4.286 0 8.286 1.714 11.214 4.715zM15.929 29.072c7.285 0 13.355-5.929 13.355-13.143 0-3.573-1.499-6.857-4-9.358-2.361-2.383-5.634-3.858-9.252-3.858-0.012 0-0.023 0-0.034 0h0.002c-7.287 0-13.214 5.929-13.214 13.143 0 2.501 0.713 4.93 2 7.072l0.357 0.501-1.358 4.857 5.001-1.358 0.427 0.286c1.919 1.161 4.236 1.85 6.713 1.858h0.002zM23.214 19.214c0.357 0.215 0.642 0.286 0.715 0.501 0.142 0.144 0.142 0.928-0.215 1.858-0.357 0.928-1.929 1.783-2.642 1.856-1.287 0.215-2.286 0.144-4.786-1.001-4-1.714-6.571-5.714-6.786-5.927-0.213-0.286-1.57-2.144-1.57-4.144 0-1.927 0.999-2.857 1.358-3.285 0.248-0.306 0.623-0.501 1.044-0.501 0.009 0 0.018 0 0.027 0l-0.001-0h0.715c0.286 0 0.571-0.071 0.928 0.715 0.286 0.784 1.143 2.713 1.214 2.926 0.073 0.217 0.144 0.43 0 0.715-0.713 1.502-1.57 1.429-1.143 2.144 1.573 2.642 3.072 3.57 5.429 4.713 0.359 0.215 0.571 0.144 0.857-0.071 0.215-0.286 1.001-1.214 1.214-1.573 0.288-0.427 0.571-0.357 0.93-0.213 0.357 0.142 2.286 1.070 2.713 1.285z"></path>
</symbol>
<symbol id="icon-youtube" viewBox="0 0 32 32">
<path fill="#707070" style="fill: var(--color1, #707070)" d="M30.5 8.722c0.667 2.334 0.667 7.333 0.667 7.333s0 4.946-0.667 7.333c-0.345 1.31-1.356 2.322-2.641 2.661l-0.026 0.006c-2.389 0.612-11.833 0.612-11.833 0.612s-9.5 0-11.89-0.612c-1.31-0.345-2.322-1.356-2.661-2.641l-0.006-0.026c-0.665-2.389-0.665-7.333-0.665-7.333s0-4.999 0.668-7.333c0.342-1.325 1.352-2.353 2.64-2.715l0.027-0.006c2.384-0.667 11.886-0.667 11.886-0.667s9.445 0 11.833 0.667c1.315 0.369 2.325 1.397 2.661 2.696l0.006 0.026zM12.889 20.556l7.89-4.501-7.89-4.5v9.001z"></path>
</symbol>
</defs>
</svg>
