<?xml version="1.0" encoding="utf-8"?><svg viewBox="0 0 41 42" xmlns="http://www.w3.org/2000/svg" xmlns:xlink="http://www.w3.org/1999/xlink"><style>:root>svg{display:none}:root>svg:target{display:block}</style><svg fill="none" viewBox="0 0 41 42" id="works-path1" xmlns="http://www.w3.org/2000/svg"><path fill-rule="evenodd" clip-rule="evenodd" d="m38.543 35.013-31.185-.012c-.614-.008-.945.038-1.762.404l-5.048 2.26a.908.908 0 0 0-.548.84.92.92 0 0 0 .546.84c1.655.743 5.05 2.263 5.05 2.263.764.342 1.096.38 1.639.38l12.22.012a.602.602 0 0 0 0-1.205H7.978V39.11h26.538v1.686H22.438a.602.602 0 0 0 0 1.205h16.105A2.462 2.462 0 0 0 41 39.54v-2.066a2.462 2.462 0 0 0-2.457-2.46ZM3.485 37.67v1.672l-.578-.259-1.289-.577 1.867-.836Zm1.201-.538v2.749c.439.196 1.91.843 2.09.885v-4.518c-.18.041-2.09.884-2.09.884Zm3.29.772v-1.686h26.539v1.686H7.977Zm30.567 2.89c.692 0 1.256-.562 1.256-1.255v-2.065c0-.692-.564-1.255-1.256-1.255h-2.827v4.576h2.827ZM1.063 32l18.878-.002a.615.615 0 0 0 .619-.611.615.615 0 0 0-.619-.611l-18.704.002V5.848h2.472V26.27c0 .554.457 1.005 1.018 1.005h25.64c.423 0 .791-.226.938-.576.146-.348.05-.738-.26-1.042L10.954 5.848h22.742v19.371c0 .571.47 1.035 1.048 1.035h2.726c1.265 0 2.294 1.015 2.294 2.261 0 1.247-1.029 2.26-2.294 2.26H22.78a.615.615 0 0 0-.618.612c0 .337.276.61.618.61h14.689c1.947 0 3.531-1.562 3.531-3.482V5.611c0-1.922-1.584-3.485-3.531-3.485h-2.726c-.578 0-1.048.463-1.048 1.033v1.467H9.714L5.347.32c-.31-.305-.705-.399-1.06-.252-.354.147-.581.511-.578.924v3.634H1.062C.478 4.626 0 5.097 0 5.676V30.95C0 31.529.477 32 1.063 32ZM34.93 3.348h2.538c1.265 0 2.294 1.015 2.294 2.263V25.87a3.545 3.545 0 0 0-2.294-.838H34.93V3.348Zm-5.234 22.707L4.945 1.65v24.405h2.653v-.858c0-.338.277-.611.618-.611.342 0 .618.273.618.61v.858h2.655V24.39c0-.337.277-.61.618-.61.342 0 .619.273.619.61v1.666h2.652v-.858c0-.338.277-.611.618-.611.342 0 .619.273.619.61v.858h2.655V24.39c0-.337.277-.61.618-.61.341 0 .618.273.618.61v1.666h2.653v-.858c0-.338.277-.611.618-.611.342 0 .618.273.618.61v.858h5.302Z" fill="#000"/><path fill-rule="evenodd" clip-rule="evenodd" d="M16.688 22h-6.2c-.44 0-.726-.293-.726-.746v-6.348c0-.24 0-.686.403-.856.396-.168.682.126.89.341l6.137 6.283c.209.214.494.507.33.913-.166.413-.6.413-.834.413Zm-.907-1.148-4.9-5.017v5.017h4.9Z" fill="#000"/></svg><svg fill="none" viewBox="0 0 38 34" id="works-path2" xmlns="http://www.w3.org/2000/svg"><path fill-rule="evenodd" clip-rule="evenodd" d="M35.742 9.63h.588c.92 0 1.67.838 1.67 1.867V23.04c0 1.715-1.248 3.11-2.783 3.11h-1.734v6.102c0 .964-.701 1.748-1.564 1.748-.816 0-1.502-.713-1.56-1.624l-.395-6.225H13.805c-.307 0-.556-.28-.556-.623 0-.343.249-.622.556-.622h21.412c.92 0 1.67-.837 1.67-1.867V11.497c0-.343-.25-.622-.557-.622h-2.29c-.269 0-.493.213-.545.497a.686.686 0 0 0-.012.125v2.98h.897c.748 0 1.356.68 1.356 1.516v3.592c0 .837-.608 1.517-1.356 1.517H3.62c-.748 0-1.356-.68-1.356-1.517v-3.592c0-.836.608-1.517 1.356-1.517h.897v-2.98a.694.694 0 0 0-.012-.124c-.052-.284-.276-.497-.545-.497H1.67c-.307 0-.557.279-.557.622v11.542c0 1.03.75 1.867 1.67 1.867h8.425c.307 0 .556.279.556.622 0 .344-.249.623-.556.623H8.036l-.396 6.225C7.582 33.286 6.897 34 6.08 34c-.862 0-1.563-.784-1.563-1.748v-6.101H2.783C1.25 26.15 0 24.755 0 23.04V11.497c0-1.03.75-1.867 1.67-1.867h.588V2.862C2.258 1.284 3.408 0 4.82 0h12.177c.811 0 1.535.424 2.004 1.084C19.47.424 20.193 0 21.004 0H33.18c1.25 0 2.311.998 2.523 2.373.053.339-.15.66-.454.72-.303.057-.59-.17-.643-.508-.12-.777-.72-1.34-1.426-1.34H21.004c-.798 0-1.447.725-1.447 1.617v11.639l.01-.002.015-.004c.095-.022.195-.022 5.143-.02h.004l7.64.001v-2.98c0-1.028.75-1.866 1.67-1.866h.59V5.38c0-.343.248-.622.556-.622.307 0 .557.279.557.623v4.25ZM6.675 32.286l.335-6.164H5.903v6.128c0 .28.173.506.386.506.202 0 .372-.206.386-.47ZM34.68 19.63c0 .15-.11.272-.245.272H19.553V16.03c0-.15.11-.273.245-.273h14.637c.135 0 .245.122.245.273v3.6ZM3.32 9.637h.591c.924 0 1.676.838 1.676 1.869v2.982l7.69-.002h.004c4.975-.001 5.06-.001 5.139.02l.027.006V2.863c0-.893-.652-1.62-1.453-1.62H4.773c-.801 0-1.453.727-1.453 1.62v6.774Zm0 9.993v-3.601c0-.15.11-.273.245-.273h14.637c.135 0 .245.122.245.273v3.873H3.565c-.135 0-.245-.122-.245-.272Zm28.39 13.126c.214 0 .387-.227.387-.506v-6.128H30.99l.335 6.164c.015.264.184.47.386.47Z" fill="#000"/></svg><svg fill="none" viewBox="0 0 38 26" id="works-path3" xmlns="http://www.w3.org/2000/svg"><path fill-rule="evenodd" clip-rule="evenodd" d="M23.67 19.13h13.514c.45 0 .816.397.816.886V25.396c0 .334-.25.604-.557.604-.307 0-.556-.27-.556-.604v-1.963H30.91c-.307 0-.556-.27-.556-.604 0-.334.249-.605.556-.605h5.977V20.338H23.67v1.886h4.974c.308 0 .557.271.557.605 0 .334-.25.604-.557.604H23.67v1.107c0 .609-.458 1.104-1.02 1.104H11.835C5.309 25.644 0 19.892 0 12.822 0 5.752 5.31 0 11.835 0c5.213 0 9.649 3.67 11.223 8.751h2.012c.485 0 .879.385.98.957l.762 4.297c.065.362-.001.697-.187.942a.936.936 0 0 1-.767.365H23.67v3.818Zm2.026-5.027-.735-4.143h-1.589c.195.92.298 1.879.298 2.862v1.281h2.026Zm-24.568-.676h2.144c.15 0 .355-.015.526-.202.184-.204.179-.446.176-.575a2.32 2.32 0 0 1 0-.143 8.957 8.957 0 0 1 1.374-4.506.638.638 0 0 0-.142-.84.53.53 0 0 0-.774.154 10.216 10.216 0 0 0-1.56 4.903H1.128c.281-5.924 4.68-10.69 10.15-10.994v1.89c-1.753.115-3.417.777-4.826 1.921a.64.64 0 0 0-.113.846.526.526 0 0 0 .78.122c1.286-1.044 2.815-1.63 4.423-1.693.053-.002.095-.001.128 0h.005c.122.002.344.006.53-.193.19-.204.188-.446.187-.622v-2.27c5.654.314 10.165 5.396 10.165 11.597v8.514H12.261c-.543 0-.984.479-.984 1.067v2.017c-5.47-.305-9.869-5.07-10.15-10.994Zm11.264 11.009h10.165v-1.891H12.392v1.89Z" fill="#000"/><path fill-rule="evenodd" clip-rule="evenodd" d="M17.198 19.933h-5.322c-3.493 0-6.334-2.916-6.334-6.5s2.841-6.5 6.334-6.5c3.492 0 6.332 2.916 6.332 6.5v5.46c0 .574-.453 1.04-1.01 1.04Zm-.115-6.5c0-2.946-2.336-5.342-5.207-5.342-2.872 0-5.209 2.396-5.209 5.341 0 2.947 2.337 5.344 5.209 5.344h5.207v-5.344Z" fill="#000"/><path fill-rule="evenodd" clip-rule="evenodd" d="M13.899 15.6H9.852c-.63 0-1.143-.489-1.143-1.09v-2.156c0-.6.512-1.087 1.143-1.087h4.047c.63 0 1.143.488 1.143 1.087v2.156c0 .601-.513 1.09-1.143 1.09Zm-.129-3.123H9.98v1.912h3.79v-1.912Z" fill="#000"/></svg></svg>